<?xml version="1.0" encoding="UTF-8"?>
<svg id="Livello_2" data-name="Livello 2" xmlns="http://www.w3.org/2000/svg" viewBox="0 0 159.22 173.29">
  <g id="Livello_1-2" data-name="Livello 1">
    <g>
      <path d="M79.61,49.06l47.61,114.21c1.41,3.06,3.52,5.52,6.25,7.3,2.78,1.81,5.88,2.73,9.23,2.73,4.72,0,8.83-1.69,11.92-4.89,3.01-3.13,4.6-7.15,4.6-11.63,0-2.06-.53-4.34-1.63-7L99.67,13.04c-1.62-3.64-3.96-6.69-6.96-9.07-3.33-2.63-7.36-3.96-11.97-3.96h-2.27c-4.62,0-8.65,1.34-11.97,3.98-2.99,2.37-5.33,5.42-7,9.17L1.62,149.81c-1.09,2.62-1.62,4.89-1.62,6.97,0,4.48,1.59,8.51,4.6,11.63,5.26,5.47,14.45,6.53,21.15,2.16,2.75-1.79,4.85-4.25,6.35-7.51L79.61,49.06Z" fill="#fff"/>
      <path d="M143.61,142.11l-128.23-.07c-4.29,0-8.1,1.61-11.02,4.66C1.51,149.68,0,153.46,0,157.65s1.54,8.02,4.45,10.92c2.91,2.92,6.69,4.46,10.93,4.46l128.23,.07c4.18,0,7.97-1.51,10.94-4.36,3.06-2.92,4.67-6.74,4.67-11.03,0-4.23-1.58-8.05-4.57-11.04-2.99-2.99-6.81-4.57-11.04-4.57Z" fill="#fff"/>
      <path d="M143.61,89.74l-128.23-.07c-4.29,0-8.1,1.61-11.02,4.66C1.51,97.32,0,101.1,0,105.28s1.54,8.02,4.45,10.92c2.91,2.92,6.69,4.46,10.93,4.46l128.23,.07c4.18,0,7.97-1.51,10.94-4.36,3.06-2.92,4.67-6.74,4.67-11.03,0-4.23-1.58-8.05-4.57-11.04-2.99-2.99-6.81-4.57-11.04-4.57Z" fill="#fff"/>
    </g>
  </g>
</svg>