<?xml version="1.0" encoding="UTF-8"?>
<svg id="Livello_2" data-name="Livello 2" xmlns="http://www.w3.org/2000/svg" viewBox="0 0 173.29 173.29">
  <g id="Livello_1-2" data-name="Livello 1">
    <g>
      <circle cx="86.65" cy="86.65" r="86.65" fill="#fff"/>
      <g>
        <path d="M86.65,62.81l25.93,62.2c.77,1.67,1.92,3,3.41,3.97,1.51,.99,3.2,1.49,5.03,1.49,2.57,0,4.81-.92,6.49-2.66,1.64-1.7,2.5-3.89,2.5-6.33,0-1.12-.29-2.36-.89-3.81l-31.55-74.47c-.88-1.98-2.15-3.64-3.79-4.94-1.81-1.43-4.01-2.16-6.52-2.16h-1.24c-2.52,0-4.71,.73-6.52,2.17-1.63,1.29-2.9,2.95-3.81,5l-31.53,74.43c-.6,1.43-.88,2.67-.88,3.8,0,2.44,.87,4.63,2.5,6.33,2.87,2.98,7.87,3.55,11.52,1.18,1.5-.98,2.64-2.31,3.46-4.09l25.88-62.09Z" fill="#ff6a3c"/>
        <path d="M121.5,113.48l-69.84-.04c-2.34,0-4.41,.88-6,2.54-1.56,1.62-2.38,3.68-2.38,5.96,0,2.31,.84,4.37,2.43,5.95,1.59,1.59,3.64,2.43,5.95,2.43l69.84,.04c2.28,0,4.34-.82,5.96-2.37,1.66-1.59,2.54-3.67,2.54-6.01,0-2.3-.86-4.38-2.49-6.01-1.63-1.63-3.71-2.49-6.01-2.49Z" fill="#ff6a3c"/>
        <path d="M121.5,84.96l-69.84-.04c-2.34,0-4.41,.88-6,2.54-1.56,1.62-2.38,3.68-2.38,5.96,0,2.31,.84,4.37,2.43,5.95,1.59,1.59,3.64,2.43,5.95,2.43l69.84,.04c2.28,0,4.34-.82,5.96-2.37,1.66-1.59,2.54-3.67,2.54-6.01,0-2.3-.86-4.38-2.49-6.01-1.63-1.63-3.71-2.49-6.01-2.49Z" fill="#ff6a3c"/>
      </g>
    </g>
  </g>
</svg>