<?xml version="1.0" encoding="UTF-8"?>
<svg id="Livello_2" data-name="Livello 2" xmlns="http://www.w3.org/2000/svg" viewBox="0 0 688.41 160.13">
  <g id="Livello_1-2" data-name="Livello 1">
    <g>
      <path d="M107.73,74.83c0-2.86-1.07-5.44-3.09-7.47-2.02-2.02-4.6-3.09-7.47-3.09h-7.75L67.44,12.37c-1.1-2.46-2.68-4.52-4.71-6.14-2.25-1.78-4.98-2.68-8.1-2.68h-1.53c-3.13,0-5.85,.9-8.1,2.69-2.02,1.6-3.61,3.67-4.73,6.21l-21.93,51.78h-7.92c-2.9,0-5.48,1.09-7.45,3.15-1.93,2.02-2.95,4.57-2.95,7.41s1.04,5.42,3.01,7.39c1.75,1.76,3.99,2.73,6.47,2.93L1.1,104.91c-.74,1.77-1.1,3.31-1.1,4.72,0,.1,.02,.2,.03,.3,0,.1-.03,.19-.03,.29,0,2.87,1.04,5.42,3.01,7.39,1.32,1.32,2.92,2.19,4.69,2.64,.17,.05,.34,.11,.52,.15,.07,.01,.14,.03,.21,.04,1.43,.34,2.93,.4,4.41,.19l81.97,.04c.57,.08,1.15,.13,1.74,.13,.94,0,1.82-.13,2.68-.32,2.01-.38,3.83-1.31,5.33-2.76,2.07-1.97,3.16-4.56,3.16-7.46,0-.11-.03-.2-.03-.31,0-.11,.03-.21,.03-.33,0-1.4-.36-2.94-1.11-4.74l-8.37-19.75c2.39-.23,4.57-1.17,6.31-2.85,2.07-1.97,3.16-4.56,3.16-7.46ZM53.87,36.74l11.47,27.51h-22.93l11.46-27.51Zm26.24,62.95l-52.47-.03,6.03-14.46,40.41,.02,6.03,14.46Z" fill="#fff"/>
      <path d="M137.84,0c-3.48,0-6.59,1.32-8.99,3.8-2.34,2.43-3.58,5.51-3.58,8.92V111.72c0,3.44,1.26,6.53,3.65,8.91,2.39,2.39,5.47,3.65,8.91,3.65s6.48-1.24,8.91-3.57c2.49-2.4,3.81-5.51,3.81-8.99V12.72c0-3.53-1.26-6.67-3.65-9.06-2.39-2.39-5.53-3.65-9.07-3.65Z" fill="#fff"/>
      <path d="M175.82,0c-3.48,0-6.59,1.32-8.99,3.8-2.34,2.43-3.58,5.51-3.58,8.92V111.72c0,3.44,1.26,6.53,3.65,8.91,2.39,2.39,5.47,3.65,8.91,3.65s6.48-1.24,8.91-3.57c2.49-2.4,3.81-5.51,3.81-8.99V12.72c0-3.53-1.26-6.67-3.65-9.06-2.39-2.39-5.53-3.65-9.07-3.65Z" fill="#fff"/>
      <path d="M277.18,85.77c2.29-2.38,3.5-5.43,3.5-8.83,0-7.75-1.63-15.03-4.85-21.64-3.31-6.78-8.21-12.28-14.56-16.34-6.4-4.09-14-6.16-22.6-6.16-9.16,0-17.07,2.23-23.51,6.64-6.37,4.37-11.15,10.16-14.21,17.23-2.94,6.79-4.44,14.28-4.44,22.25,0,14.31,4.07,25.69,12.09,33.82,8.04,8.16,19.19,12.3,33.12,12.3,6.69,0,12.1-.62,16.53-1.9,4.27-1.23,8.63-3.1,13.01-5.57,5.93-3.42,6.82-8.1,6.82-10.58,0-3.33-1.27-6.26-3.68-8.47-2.27-2.08-5.08-3.18-8.12-3.18-1.9,0-3.68,.41-5.3,1.21-2.67,1.34-5.44,2.37-8.24,3.08-2.72,.69-6.02,1.04-9.81,1.04-6.56,0-11.6-1.52-14.98-4.51-2.01-1.78-3.52-3.98-4.56-6.66h44.55c3.68,0,6.87-1.29,9.22-3.74Zm-52.37-22.6c1.66-2.49,3.64-4.26,6.07-5.4,5.23-2.45,10.37-2.45,15.59,0,2.44,1.15,4.46,2.93,6.18,5.45,.72,1.06,1.32,2.26,1.78,3.59h-31.38c.46-1.35,1.04-2.57,1.76-3.65Z" fill="#fff"/>
      <path d="M344.28,45.36c0-3.4-1.21-6.45-3.5-8.84-2.35-2.44-5.43-3.73-8.91-3.73h-.76c-7.11,0-13.74,2.47-19.8,7.37-.57-1.03-1.3-2-2.18-2.87-2.44-2.44-5.55-3.73-8.99-3.73s-6.6,1.32-8.99,3.8c-2.34,2.43-3.58,5.51-3.58,8.92V111.72c0,3.45,1.26,6.53,3.66,8.92,2.39,2.39,5.47,3.65,8.91,3.65s6.48-1.24,8.91-3.57c2.49-2.4,3.81-5.51,3.81-8.99v-44.58c2.08-2.81,4.52-5.02,7.41-6.71,3.2-1.88,6.65-2.8,10.53-2.8h.76c3.45,0,6.53-1.16,8.9-3.35,2.5-2.31,3.82-5.39,3.82-8.92Z" fill="#fff"/>
      <path d="M414.54,33.56c-3.48,0-6.59,1.32-8.99,3.8-.62,.64-1.16,1.33-1.62,2.06-6.6-4.41-14.08-6.63-22.34-6.63-6.91,0-13.69,1.74-20.14,5.17-6.52,3.47-11.95,8.67-16.14,15.47-4.21,6.83-6.34,15.15-6.34,24.73s2.13,17.89,6.34,24.72c4.18,6.8,9.61,12,16.14,15.47,6.45,3.43,13.23,5.17,20.14,5.17,7.44,0,14.25-1.81,20.35-5.38-.44,12.22-5.78,17.47-17.61,17.47-8.11,0-15.73-1.75-22.62-5.19l-.43-.19c-5.34-2.14-10.14-.85-13.41,2.72-2.14,2.32-3.27,5.16-3.27,8.21,0,4.41,1.94,8.04,5.59,10.27,4.31,2.49,9.77,4.59,16.25,6.23,6.43,1.63,12.91,2.46,19.25,2.46,13.13,0,23.49-4.13,30.78-12.27,7.14-7.96,10.76-19.2,10.76-33.4V46.28c0-3.44-1.29-6.55-3.73-8.99-2.44-2.44-5.55-3.73-8.99-3.73Zm-50.28,44.6c0-7.19,1.8-12.4,5.49-15.94,3.76-3.6,8.58-5.36,14.74-5.36,3.83,0,7.06,.76,9.89,2.33,2.59,1.44,5.14,3.33,7.59,5.64v26.65c-2.46,2.31-5,4.2-7.59,5.64-2.83,1.57-6.06,2.33-9.89,2.33-6.16,0-10.98-1.75-14.74-5.36-3.69-3.53-5.49-8.75-5.49-15.94Z" fill="#fff"/>
      <path d="M515.9,85.77c2.29-2.38,3.49-5.43,3.49-8.83,0-7.75-1.63-15.03-4.85-21.64-3.31-6.78-8.21-12.28-14.56-16.34-6.4-4.09-14-6.16-22.6-6.16-9.16,0-17.07,2.23-23.51,6.64-6.37,4.36-11.15,10.16-14.21,17.23-2.94,6.79-4.44,14.28-4.44,22.25,0,14.31,4.07,25.69,12.09,33.82,8.04,8.16,19.18,12.3,33.12,12.3,6.69,0,12.1-.62,16.53-1.9,4.27-1.23,8.63-3.1,13.01-5.57,5.93-3.42,6.82-8.1,6.82-10.58,0-3.33-1.27-6.26-3.68-8.47-2.27-2.08-5.08-3.18-8.12-3.18-1.9,0-3.68,.41-5.3,1.21-2.67,1.34-5.44,2.37-8.24,3.08-2.72,.69-6.02,1.04-9.81,1.04-6.56,0-11.6-1.52-14.98-4.51-2.01-1.78-3.52-3.98-4.56-6.66h44.55c3.68,0,6.87-1.29,9.23-3.74Zm-52.38-22.6c1.66-2.49,3.64-4.26,6.07-5.4,5.22-2.45,10.37-2.45,15.59,0,2.44,1.15,4.46,2.93,6.18,5.45,.72,1.06,1.32,2.26,1.78,3.59h-31.37c.46-1.35,1.04-2.57,1.76-3.65Z" fill="#fff"/>
      <path d="M591.9,37.67c-5.03-3.23-10.97-4.87-17.65-4.87-7.07,0-13.35,1.53-18.68,4.56-1.78,1.01-3.53,2.15-5.23,3.41-.61-1.27-1.45-2.43-2.49-3.48-2.44-2.44-5.55-3.73-8.99-3.73s-6.6,1.32-8.99,3.8c-2.34,2.43-3.58,5.51-3.58,8.92V111.72c0,3.45,1.26,6.53,3.66,8.92,2.39,2.39,5.47,3.65,8.91,3.65s6.48-1.24,8.91-3.58c2.49-2.4,3.81-5.5,3.81-8.99v-43.72c2.8-3.29,5.76-5.96,8.8-7.96,3.1-2.04,6.54-3.03,10.52-3.03,6.65,0,11.08,2.2,11.08,12.91v41.79c0,3.45,1.27,6.53,3.65,8.91,2.39,2.39,5.47,3.65,8.91,3.65s6.48-1.24,8.91-3.57c2.49-2.4,3.81-5.51,3.81-8.99v-43.32c0-6.33-1.29-12.23-3.84-17.56-2.64-5.52-6.52-9.95-11.52-13.17Z" fill="#fff"/>
      <path d="M684.83,102.73c-2.34-2.34-5.34-3.58-8.68-3.58h-26.84l34.75-40.71c2.28-2.77,3.44-6.04,3.44-9.73,0-4.04-1.42-7.59-4.11-10.29-2.69-2.69-6.3-4.11-10.43-4.11h-46.22c-3.39,0-6.39,1.27-8.69,3.66-2.24,2.33-3.42,5.31-3.42,8.6s1.21,6.32,3.5,8.61c2.29,2.29,5.27,3.5,8.61,3.5h26.07l-35.68,41c-2.54,2.86-3.88,6.33-3.88,10.04,0,4.32,1.71,7.93,4.94,10.45,2.85,2.22,6.33,3.34,10.37,3.34h47.59c3.3,0,6.27-1.18,8.6-3.42,2.39-2.3,3.66-5.3,3.66-8.69s-1.23-6.34-3.58-8.68Z" fill="#fff"/>
    </g>
  </g>
</svg>